<?xml version="1.0" standalone="no"?>
<!DOCTYPE svg PUBLIC "-//W3C//DTD SVG 20010904//EN"
 "http://www.w3.org/TR/2001/REC-SVG-20010904/DTD/svg10.dtd">
<svg version="1.0" xmlns="http://www.w3.org/2000/svg"
 width="444.000000pt" height="444.000000pt" viewBox="0 0 444.000000 444.000000"
 preserveAspectRatio="xMidYMid meet">
<metadata>
Created by potrace 1.14, written by Peter Selinger 2001-2017
</metadata>
<g transform="translate(0.000000,444.000000) scale(0.100000,-0.100000)"
fill="#000000" stroke="none">
<path d="M0 3830 l0 -610 32 4 c29 3 33 7 36 35 3 31 15 40 27 20 8 -13 55 28
55 48 0 7 5 13 10 13 6 0 10 -9 10 -20 0 -19 4 -20 53 -14 28 4 54 9 57 11 3
3 5 19 5 35 0 17 6 33 13 35 6 3 12 -2 12 -11 0 -21 16 -21 24 0 3 9 15 14 28
12 17 -2 27 -21 54 -103 18 -55 33 -120 34 -145 0 -69 27 -89 57 -44 15 24 23
58 40 166 3 21 11 42 19 49 8 6 14 25 14 41 0 17 12 47 28 68 33 47 78 53 93
12 7 -19 13 -22 21 -14 7 7 26 12 44 12 24 0 38 7 53 28 18 25 22 26 42 13 17
-10 24 -10 27 -2 5 16 22 14 44 -6 15 -14 23 -15 37 -6 10 7 28 9 40 6 16 -4
23 1 33 23 17 40 17 40 34 15 10 -14 22 -20 31 -16 10 3 22 -3 30 -15 8 -11
20 -20 26 -18 17 3 80 -13 93 -23 8 -6 14 -4 18 6 4 11 15 15 33 12 36 -5 83
-24 83 -34 0 -13 50 -32 66 -26 8 3 14 -1 14 -11 0 -20 9 -21 24 -2 12 16 25
19 69 17 20 -1 27 -6 27 -22 0 -23 26 -86 46 -110 13 -14 28 -91 43 -210 6
-52 23 -89 41 -89 9 0 50 122 51 153 1 40 25 92 41 89 9 -1 18 7 21 19 8 30
43 21 39 -10 -3 -17 0 -22 10 -19 8 3 32 -22 63 -68 34 -50 55 -72 66 -69 9 3
24 -7 37 -25 13 -16 40 -39 62 -50 29 -15 40 -27 40 -43 0 -12 16 -39 35 -60
28 -31 41 -38 60 -33 17 4 25 1 29 -11 8 -24 61 -83 74 -83 6 0 16 -8 21 -17
8 -17 29 -20 89 -14 7 1 12 15 12 36 0 38 14 47 23 14 4 -14 13 -19 29 -18 54
5 50 9 105 -111 11 -25 27 -79 34 -119 19 -112 58 -139 72 -51 9 59 35 153 56
200 11 25 22 52 25 62 4 13 11 15 42 8 43 -10 54 -6 55 18 0 9 11 -7 25 -35
20 -43 29 -53 49 -53 14 0 29 8 35 20 12 23 30 27 30 6 0 -10 16 -17 45 -22
39 -5 47 -11 61 -40 27 -56 75 -68 89 -23 9 27 25 23 25 -6 0 -17 7 -28 23
-34 13 -5 29 -16 36 -25 7 -9 19 -16 26 -16 7 0 25 -17 41 -37 15 -21 32 -41
38 -45 14 -9 34 1 39 20 3 15 5 14 12 -3 15 -35 59 -73 90 -77 23 -2 31 -8 33
-28 3 -23 13 -53 32 -90 4 -8 20 -15 36 -15 19 0 30 -6 32 -17 2 -10 7 -18 12
-18 10 0 100 133 100 148 0 6 7 15 16 20 9 5 20 27 23 48 l7 39 22 -41 c28
-55 50 -63 64 -24 12 37 24 38 60 3 27 -26 29 -26 45 -10 15 15 16 20 4 39
-12 19 -11 23 10 39 20 15 26 16 39 5 8 -8 25 -17 38 -21 18 -5 25 -1 40 24
23 41 40 39 44 -4 2 -20 7 -36 13 -37 13 -1 41 50 50 90 4 19 13 32 22 32 23
0 73 -33 73 -48 0 -7 4 -11 9 -8 4 3 6 17 3 31 -3 20 0 25 17 25 l21 0 0 935
0 935 -2220 0 -2220 0 0 -610z"/>
<path d="M1333 2754 c-1 -78 -5 -130 -12 -137 -6 -6 -11 -17 -11 -24 0 -26
-34 -53 -67 -53 -18 0 -33 4 -33 9 0 19 -52 19 -71 0 -11 -11 -25 -19 -33 -19
-7 0 -16 -10 -19 -22 -6 -22 -6 -22 -37 7 -16 16 -30 38 -30 50 0 34 -11 37
-32 9 -15 -18 -19 -36 -16 -69 4 -52 -14 -62 -23 -12 -6 39 -44 108 -65 120
-8 4 -14 19 -14 32 0 27 -15 34 -23 11 -9 -22 8 -71 24 -71 8 0 15 -10 17 -22
2 -13 -1 -23 -6 -23 -5 0 -15 -21 -21 -46 -13 -50 -27 -49 -33 1 -2 20 -9 31
-23 34 -11 2 -25 10 -31 19 -14 19 -54 23 -54 5 0 -7 11 -13 26 -13 22 0 25
-4 22 -27 -2 -16 -8 -28 -15 -28 -6 0 -14 -3 -18 -6 -3 -4 -23 1 -43 11 -24
12 -40 29 -48 51 l-12 34 -1 -36 c-1 -46 -21 -65 -51 -49 -27 14 -34 -4 -28
-70 3 -27 2 -47 -2 -45 -5 3 -11 -2 -14 -11 -9 -25 -7 -72 4 -79 16 -10 12
-65 -5 -71 -9 -4 -15 -19 -15 -40 0 -18 -5 -44 -11 -57 -7 -16 -8 -31 -2 -42
10 -18 -6 -85 -20 -85 -17 0 -19 32 -2 49 15 18 15 21 0 51 -23 45 -31 132
-14 171 12 30 11 33 -9 47 -14 9 -22 25 -22 43 0 49 -17 81 -42 77 -17 -2 -24
-12 -28 -39 -4 -19 -13 -46 -22 -58 -9 -13 -14 -31 -11 -40 4 -14 3 -14 -6 -1
-6 8 -11 27 -11 43 0 31 -17 35 -36 10 -10 -15 -15 -16 -25 -5 -16 15 -85 16
-95 1 -8 -13 -44 38 -44 62 0 15 -30 49 -42 49 -10 0 -28 -62 -28 -96 0 -30
-3 -34 -25 -34 l-25 0 1 -482 c0 -266 3 -477 6 -470 11 28 29 11 25 -24 -3
-26 -1 -35 7 -30 6 4 11 14 11 22 0 9 10 14 28 14 37 0 52 17 46 49 -3 14 1
34 9 45 13 17 14 17 31 1 10 -11 14 -24 10 -34 -13 -28 -17 -81 -6 -81 5 0 13
7 16 16 4 11 13 14 30 10 18 -4 33 1 54 19 35 29 44 23 36 -22 -4 -22 -2 -33
5 -33 6 0 14 13 17 30 4 16 13 35 20 41 8 6 14 17 14 24 0 20 58 37 81 24 23
-12 24 -22 4 -39 -23 -19 -15 -54 13 -58 17 -3 25 4 35 27 10 24 16 28 25 19
7 -7 12 -20 12 -30 0 -10 5 -18 10 -18 6 0 10 23 10 50 0 28 5 50 10 50 6 0
10 -18 10 -40 0 -47 24 -56 40 -15 6 16 14 23 25 19 9 -4 15 -1 15 7 0 25 54
122 88 155 17 19 32 40 32 48 0 8 4 17 9 20 4 3 11 19 14 36 4 17 18 54 32 84
14 29 25 58 25 65 0 7 11 27 24 44 40 54 57 99 51 132 l-6 30 19 -23 c17 -22
20 -23 35 -7 9 9 17 22 17 30 0 7 17 31 38 53 21 22 46 61 56 86 10 25 24 46
32 46 10 0 14 13 14 49 0 28 5 53 10 56 6 3 10 -3 10 -14 0 -17 26 -41 43 -41
3 0 19 22 36 49 16 27 39 52 50 56 12 3 21 13 21 21 0 8 4 22 10 32 25 47 39
92 41 137 5 107 -1 325 -9 325 -5 0 -9 -57 -9 -126z m-1026 -486 c-3 -7 -5 -2
-5 12 0 14 2 19 5 13 2 -7 2 -19 0 -25z m-102 13 c3 -5 1 -12 -5 -16 -5 -3
-10 1 -10 9 0 18 6 21 15 7z m75 -86 c0 -18 -4 -22 -20 -18 -23 6 -24 8 -9 34
13 24 29 16 29 -16z m-31 -129 c-2 -2 -14 -7 -26 -10 -29 -9 -38 9 -16 32 17
17 18 17 32 -1 7 -10 11 -20 10 -21z m87 -181 c-7 -26 -26 -30 -33 -8 -4 12
27 47 34 39 3 -3 2 -17 -1 -31z m-106 -4 c0 -6 -4 -13 -10 -16 -5 -3 -10 1
-10 9 0 9 5 16 10 16 6 0 10 -4 10 -9z m260 -411 c0 -5 -4 -10 -10 -10 -5 0
-10 5 -10 10 0 6 5 10 10 10 6 0 10 -4 10 -10z"/>
<path d="M1404 2726 c-8 -32 -2 -58 14 -64 8 -2 12 9 12 37 0 46 -16 64 -26
27z"/>
<path d="M1393 2618 c-25 -36 6 -220 40 -234 8 -3 13 -37 14 -106 3 -108 14
-137 39 -104 8 11 14 31 14 44 0 13 5 33 11 45 7 11 15 50 20 86 5 36 13 89
19 116 18 84 23 145 11 145 -6 0 -11 -9 -11 -20 0 -11 -7 -20 -15 -20 -20 0
-19 -19 1 -41 15 -16 14 -19 -15 -34 -17 -8 -31 -20 -31 -25 0 -6 -4 -10 -10
-10 -5 0 -10 7 -10 15 0 21 -20 19 -21 -2 -2 -33 -18 61 -18 110 -1 47 -17 63
-38 35z"/>
<path d="M294 2609 c-3 -6 -1 -16 5 -22 8 -8 11 -5 11 11 0 24 -5 28 -16 11z"/>
<path d="M777 2606 c-4 -10 -5 -21 -2 -24 9 -9 17 6 13 25 -3 17 -4 17 -11 -1z"/>
<path d="M4020 2335 c0 -8 5 -15 10 -15 6 0 10 7 10 15 0 8 -4 15 -10 15 -5 0
-10 -7 -10 -15z"/>
<path d="M4360 2166 c0 -9 -9 -25 -21 -37 -30 -30 -21 -55 19 -51 25 3 32 -1
32 -14 0 -13 3 -14 15 -4 22 18 19 57 -5 63 -12 3 -20 14 -20 25 0 12 -4 24
-10 27 -5 3 -10 -1 -10 -9z"/>
<path d="M4265 2070 c-7 -12 2 -30 16 -30 12 0 12 27 0 35 -5 3 -12 1 -16 -5z"/>
<path d="M4420 2011 c0 -11 5 -23 10 -26 6 -4 10 5 10 19 0 14 -4 26 -10 26
-5 0 -10 -9 -10 -19z"/>
<path d="M1770 1955 c0 -8 5 -15 10 -15 6 0 10 7 10 15 0 8 -4 15 -10 15 -5 0
-10 -7 -10 -15z"/>
<path d="M4330 1938 c0 -35 12 -30 17 7 2 14 -1 25 -7 25 -5 0 -10 -14 -10
-32z"/>
<path d="M4425 1940 c-4 -6 -11 -8 -16 -5 -5 4 -9 -14 -9 -39 0 -35 5 -48 20
-56 19 -10 20 -8 20 50 0 59 -3 69 -15 50z"/>
<path d="M1770 1750 c0 -5 5 -10 10 -10 6 0 10 5 10 10 0 6 -4 10 -10 10 -5 0
-10 -4 -10 -10z"/>
<path d="M4050 1697 c0 -22 -22 -38 -36 -26 -10 8 -17 2 -29 -27 -17 -42 -17
-65 3 -72 7 -2 15 9 18 27 9 45 39 40 91 -14 37 -39 46 -44 63 -35 11 6 20 15
20 20 0 23 21 7 27 -20 3 -16 10 -30 16 -30 6 0 7 23 3 63 -7 64 -23 87 -58
87 -10 0 -26 9 -35 20 -20 23 -83 28 -83 7z"/>
<path d="M1910 1652 c0 -15 5 -33 11 -39 8 -8 7 -17 -4 -34 -10 -14 -14 -33
-10 -51 5 -24 2 -30 -16 -35 -16 -4 -21 -13 -22 -42 -2 -100 -1 -96 -39 -96
-37 0 -49 -19 -34 -53 4 -9 8 -33 8 -52 1 -35 1 -35 61 -44 33 -5 63 -13 66
-18 8 -13 39 1 39 18 0 19 14 18 61 -6 l40 -21 33 21 c42 26 44 25 48 -7 2
-20 14 -32 47 -50 24 -13 46 -23 48 -23 3 0 2 26 -1 58 -6 69 -6 49 -2 207 3
118 1 132 -18 158 -30 41 -69 34 -76 -13 -3 -23 -11 -36 -23 -38 -22 -4 -33
23 -20 51 11 25 3 70 -12 65 -5 -2 -10 -13 -10 -26 -1 -12 -11 -29 -22 -37
-13 -9 -23 -28 -25 -48 l-3 -32 -19 29 c-18 26 -18 29 -3 38 19 10 23 48 6 48
-6 0 -13 -9 -16 -20 -6 -24 -49 -38 -66 -21 -9 9 -7 20 8 47 12 23 15 38 8 42
-6 4 -13 17 -17 30 -10 31 -26 28 -26 -6z m50 -177 c10 -12 10 -18 0 -30 -15
-18 -50 1 -50 27 0 22 33 24 50 3z"/>
<path d="M1764 1646 c-8 -21 -1 -61 11 -61 6 0 11 17 13 38 3 37 -13 52 -24
23z"/>
<path d="M2296 1637 c-24 -19 -27 -28 -24 -66 3 -40 6 -44 38 -55 28 -9 35
-16 35 -36 0 -21 -4 -25 -26 -22 -43 5 -49 -14 -44 -134 9 -175 14 -200 40
-212 31 -14 94 14 101 45 8 30 19 29 48 -2 13 -14 26 -25 29 -25 13 0 51 66
57 99 3 20 11 35 18 34 20 -5 44 56 37 93 -3 19 -9 34 -13 34 -4 0 -20 12 -35
26 -21 18 -31 38 -35 72 -7 47 -24 60 -30 22 -2 -11 -8 -20 -14 -20 -6 0 -28
-19 -49 -42 l-39 -41 -15 39 c-9 21 -23 53 -32 70 -11 21 -14 47 -11 83 3 28
2 53 -2 56 -3 2 -19 -6 -34 -18z m200 -364 c-3 -21 -6 -53 -6 -70 0 -18 -4
-33 -9 -33 -5 0 -9 32 -9 70 0 56 3 70 15 70 12 0 14 -8 9 -37z"/>
<path d="M4290 1610 c-13 -9 -12 -13 6 -28 12 -9 23 -22 25 -29 3 -9 9 -9 19
-3 11 7 12 12 4 18 -7 4 -13 16 -15 26 -5 23 -19 29 -39 16z"/>
<path d="M1670 1540 c0 -17 4 -39 9 -48 5 -9 12 -38 15 -64 6 -40 4 -50 -13
-65 -12 -10 -21 -23 -21 -29 0 -6 -7 -17 -15 -24 -21 -17 -19 -40 3 -40 19 0
42 -48 42 -89 0 -12 4 -19 10 -16 13 8 13 52 0 60 -15 9 -2 25 20 25 14 0 23
12 31 41 11 36 11 42 -4 51 -12 6 -17 22 -18 51 0 23 -8 71 -17 106 -19 71
-42 93 -42 41z"/>
<path d="M1845 1510 c-3 -5 -2 -10 4 -10 5 0 13 5 16 10 3 6 2 10 -4 10 -5 0
-13 -4 -16 -10z"/>
<path d="M3935 1510 c-3 -5 1 -10 9 -10 9 0 16 5 16 10 0 6 -4 10 -9 10 -6 0
-13 -4 -16 -10z"/>
<path d="M1810 1426 c0 -29 10 -38 29 -27 18 11 10 45 -12 49 -12 3 -17 -3
-17 -22z"/>
<path d="M1646 1433 c-11 -11 -6 -23 9 -23 8 0 15 4 15 9 0 13 -16 22 -24 14z"/>
<path d="M1600 1375 c0 -8 5 -15 10 -15 6 0 10 7 10 15 0 8 -4 15 -10 15 -5 0
-10 -7 -10 -15z"/>
<path d="M1320 1331 c0 -6 5 -13 10 -16 6 -3 10 1 10 9 0 9 -4 16 -10 16 -5 0
-10 -4 -10 -9z"/>
<path d="M158 1298 c-8 -18 2 -68 13 -68 14 0 16 14 4 49 -8 22 -14 29 -17 19z"/>
<path d="M1330 1255 c-11 -13 -10 -19 5 -35 25 -28 37 -25 29 8 -9 38 -19 46
-34 27z"/>
<path d="M435 1100 c-9 -15 4 -30 26 -30 28 0 61 19 54 31 -8 12 -72 12 -80
-1z"/>
<path d="M370 1060 c0 -5 4 -10 9 -10 6 0 13 5 16 10 3 6 -1 10 -9 10 -9 0
-16 -4 -16 -10z"/>
<path d="M3176 924 c-3 -9 -6 -28 -6 -44 0 -22 5 -29 25 -32 23 -5 25 -2 25
31 0 50 -30 81 -44 45z"/>
<path d="M3494 891 c-14 -14 0 -31 26 -31 23 0 30 5 30 19 0 14 -7 19 -26 17
-14 0 -28 -3 -30 -5z"/>
<path d="M3682 882 c-16 -11 12 -72 34 -72 8 0 14 -7 14 -15 0 -8 4 -15 9 -15
5 0 3 20 -5 45 -20 68 -25 73 -52 57z"/>
<path d="M2257 790 c-3 -8 -8 -37 -10 -64 -3 -29 -12 -55 -23 -66 -31 -28
-123 -53 -214 -58 -156 -7 -425 -8 -435 -1 -6 4 -30 4 -55 0 -34 -6 -449 -7
-585 -2 -11 1 -63 1 -115 1 -54 -1 -125 6 -164 15 -46 11 -114 16 -199 16 -79
-1 -135 3 -143 10 -10 8 -23 7 -49 -1 -20 -7 -44 -9 -53 -5 -9 4 -61 8 -115 9
l-97 1 0 -306 0 -306 25 5 c23 4 30 -4 26 -30 0 -5 3 -8 9 -8 5 0 10 6 10 14
0 18 86 32 105 16 9 -8 25 -8 60 1 36 9 56 9 87 0 29 -9 44 -9 51 -2 13 13
106 14 126 2 10 -6 22 -5 34 4 14 10 26 11 48 3 16 -6 43 -8 59 -6 21 3 30 0
30 -9 0 -18 29 -16 37 3 3 9 12 13 22 8 9 -3 46 -7 83 -9 37 -1 74 -7 82 -14
12 -10 17 -9 25 7 9 17 16 19 48 12 21 -5 42 -5 48 -1 5 4 16 6 23 5 6 -1 21
-2 32 -3 12 0 20 -8 21 -18 0 -14 3 -13 12 5 8 19 16 22 36 17 14 -3 34 -7 44
-9 10 -1 23 -9 28 -17 6 -10 11 -11 17 -2 4 6 41 14 84 17 60 4 79 2 88 -10
11 -12 14 -12 26 3 11 16 17 16 45 6 22 -9 36 -9 45 -2 7 5 35 8 63 5 28 -2
53 0 56 5 11 17 36 9 44 -13 5 -14 10 -18 15 -10 4 7 24 19 43 27 29 12 44 13
69 5 55 -18 233 -12 258 9 10 8 38 16 64 17 83 4 99 15 112 81 7 32 14 65 17
73 6 18 32 -54 33 -90 1 -51 75 -105 108 -78 10 8 15 9 20 1 8 -13 51 -19 73
-9 8 4 26 3 40 -2 29 -10 210 -9 227 2 7 4 20 2 28 -5 12 -10 17 -8 28 7 12
16 16 16 30 5 17 -15 226 -24 226 -10 0 11 110 15 113 5 2 -6 69 -10 152 -11
137 -1 149 -2 156 -20 7 -19 8 -19 15 3 3 12 9 22 13 23 36 4 63 3 67 -3 3 -4
11 -5 19 -1 9 3 21 0 29 -6 7 -6 16 -8 19 -4 7 6 42 12 107 17 19 1 44 6 54
11 14 6 23 3 32 -10 11 -14 16 -16 28 -6 10 8 16 9 21 1 3 -6 12 -7 18 -3 7 4
46 9 87 10 41 1 89 5 105 8 48 11 165 13 172 2 3 -5 9 -4 13 3 5 8 13 9 21 4
8 -5 22 -7 32 -6 10 2 25 -2 33 -8 11 -10 19 -9 39 4 l25 16 0 264 0 263 -94
11 c-61 8 -104 9 -119 3 -25 -10 -64 -9 -82 0 -19 10 -378 -4 -415 -16 -37
-12 -95 -13 -108 -2 -8 6 -50 7 -120 3 -95 -7 -419 -9 -712 -6 -58 1 -118 5
-135 10 -16 5 -84 12 -150 14 -66 2 -133 10 -149 16 -46 17 -74 54 -81 107 -8
62 -12 71 -18 53z"/>
</g>
</svg>
